# xmcd
#
# Track frame offsets:
#	150
#	22917
#	46264
#	68048
#	87028
#	106332
#	127612
#	149492
#	167187
#	189982
#	213766
#	227339
#	249836
#	270006
#	285750
#	318568
#	340985
#
# Disc length: 4799 seconds
#
# Revision: 0
# Processed by: cddbd v1.5.1PL2 Copyright (c) Steve Scherf et al.
# Submitted via: EasyCDDAExtractor 9.0.0.1
#
DISCID=d012bd11
DTITLE=Chris Rea - King Of The Beach
DYEAR=2000
DGENRE=Pop
TTITLE0=King Of The Beach
TTITLE1=All Summer Long
TTITLE2=Sail Away
TTITLE3=Still Beautiful
TTITLE4=The Bones Of Angels
TTITLE5=Guitar Street
TTITLE6=Who Do You Love
TTITLE7=The Memory Of A Good Friend
TTITLE8=Sandwriting
TTITLE9=Tamatave
TTITLE10=God Gave Me An Angel
TTITLE11=Waiting For A Blue Sky
TTITLE12=Josephine
TTITLE13=I Just Wanna B W/U
TTITLE14=Auberge
TTITLE15=Looking 4 The Summer
TTITLE16=The Blue Cafe
EXTD=
EXTT0=
EXTT1=
EXTT2=
EXTT3=
EXTT4=
EXTT5=
EXTT6=
EXTT7=
EXTT8=
EXTT9=
EXTT10=
EXTT11=
EXTT12=
EXTT13=
EXTT14=
EXTT15=
EXTT16=
PLAYORDER=
